<svg width="13" height="9" viewBox="0 0 13 9" fill="none" xmlns="http://www.w3.org/2000/svg">
<path d="M7.00726 8.11093L12.7923 2.32576C12.9262 2.19196 13 2.01334 13 1.82289C13 1.63244 12.9262 1.45382 12.7923 1.32002L12.3664 0.89398C12.0888 0.616754 11.6378 0.616754 11.3606 0.89398L6.5027 5.75192L1.63936 0.888589C1.50545 0.754785 1.32694 0.680908 1.13659 0.680908C0.946033 0.680908 0.767522 0.754785 0.633507 0.888589L0.207681 1.31463C0.0737714 1.44854 -4.1357e-08 1.62705 -4.9682e-08 1.8175C-5.8007e-08 2.00795 0.0737714 2.18657 0.207681 2.32037L5.99802 8.11093C6.13236 8.24505 6.31171 8.31872 6.50238 8.31829C6.69378 8.31872 6.87303 8.24505 7.00726 8.11093Z" fill="white"/>
</svg>
